# xmcd
# Track frame offsets:
# 150
# 12053
# 24365
# 35536
# 50967
# 61930
# 75742
# 87319
# 98112
# 109734
# 124048
#
# Disc length: 1792 seconds
# Revision: 0
# Processed by: cddbd v1.4PL0 Copyright (c) Steve Scherf et al.
# Submitted via: VisiTrax 2.9.5.180 - For more info visit www.synapsa.com
#
DISCID=8406fe0b
DTITLE=Billy Troy - Country Bo
DYEAR=1900
DGENRE=
TTITLE0=Country girls love to dance
TTITLE1=I still love love love you
TTITLE2=Watch old memories burn
TTITLE3=Who needs you
TTITLE4=He's still rockin'
TTITLE5=Except for september
TTITLE6=When there's not a tear
TTITLE7=It ain't fair
TTITLE8=I'm giving back my borrowed angel
TTITLE9=Has it all been said and done
TTITLE10=Looking through the tears
EXTD=
EXTT0=
EXTT1=
EXTT2=
EXTT3=
EXTT4=
EXTT5=
EXTT6=
EXTT7=
EXTT8=
EXTT9=
EXTT10=
PLAYORDER=
